<svg version="1.1" id="Layer_1" xmlns="http://www.w3.org/2000/svg" xmlns:xlink="http://www.w3.org/1999/xlink" x="0px" y="0px"
	 width="100%" viewBox="0 0 720 256" enable-background="new 0 0 720 256" xml:space="preserve">
<path fill="#000000" opacity="1.000000" stroke="none" 
	d="
M527.444153,257.000000 
	C524.507446,251.577576 525.917175,245.827591 525.645813,240.225906 
	C525.460632,236.402481 525.673279,232.561356 525.631775,228.728989 
	C525.586548,224.550964 527.708618,222.613388 531.767151,222.598175 
	C535.897461,222.582718 540.027893,222.594772 544.587585,222.594772 
	C545.095337,215.919113 545.019348,210.045135 544.566711,203.411591 
	C539.328674,203.411591 534.529053,203.350800 529.731689,203.429108 
	C525.153137,203.503830 522.939697,201.199524 522.823303,196.775497 
	C522.726929,193.111557 522.675476,189.439484 522.809326,185.778519 
	C522.923645,182.650726 521.827087,180.987549 518.496094,181.340637 
	C518.166565,181.375565 517.829956,181.346786 517.496704,181.342117 
	C504.841370,181.164764 504.841431,181.164673 504.288635,193.821762 
	C504.057526,199.113953 502.174927,201.155930 497.023102,201.229355 
	C489.858643,201.331451 482.691437,201.239807 475.525421,201.236481 
	C471.916962,201.234802 469.152832,199.860855 468.893250,195.981033 
	C468.622864,191.939758 471.507172,190.412994 474.978882,190.192230 
	C479.130066,189.928268 483.314209,189.857224 487.467865,190.050766 
	C491.492523,190.238327 493.390869,188.821320 493.069122,184.609375 
	C492.879700,182.129105 493.046783,179.611740 493.185486,177.118408 
	C493.430573,172.712448 495.643646,170.511917 500.243561,170.628067 
	C506.072479,170.775269 511.913025,170.505447 517.739319,170.697067 
	C521.261169,170.812897 522.920044,169.840149 522.816956,165.957977 
	C522.376465,149.373291 525.282043,152.286057 509.379395,152.055527 
	C499.048920,151.905762 488.714600,152.032944 478.382660,151.953522 
	C476.403442,151.938324 474.353149,151.795242 472.467773,151.252350 
	C469.969391,150.532974 468.722687,148.571136 468.807831,145.930679 
	C468.888519,143.429123 470.370667,141.884689 472.649963,141.287018 
	C474.232178,140.872116 475.932861,140.773804 477.581390,140.768448 
	C490.913483,140.725037 504.247070,140.630829 517.577087,140.799332 
	C521.408630,140.847763 522.827393,139.706757 522.855774,135.702011 
	C522.951111,122.269402 523.091553,122.270279 509.507843,122.263878 
	C498.508789,122.258698 487.509674,122.238884 476.510651,122.257057 
	C472.678833,122.263382 469.378754,121.420395 468.849152,116.924866 
	C468.432068,113.384621 471.267273,111.106285 476.482056,111.054909 
	C490.146301,110.920280 503.813354,110.883820 517.477234,111.019043 
	C521.235474,111.056229 522.792114,110.002541 522.854736,105.957420 
	C523.065430,92.344398 523.204773,92.346664 509.703796,92.336601 
	C506.704041,92.334366 503.703705,92.368614 500.704681,92.320229 
	C495.259735,92.232368 493.712616,90.781219 493.190247,85.245041 
	C493.049744,83.756096 493.071442,82.248810 493.073059,80.749992 
	C493.081970,72.415695 493.087708,72.419022 484.500519,72.424126 
	C481.167542,72.426102 477.834381,72.386810 474.501587,72.407341 
	C471.103058,72.428268 469.106323,70.754082 468.828430,67.410774 
	C468.558105,64.158257 470.635376,62.086803 473.512024,61.991428 
	C482.162109,61.704639 490.835693,61.671604 499.483185,61.993591 
	C502.753448,62.115356 504.130829,64.960449 504.238464,68.091812 
	C504.352936,71.421143 504.345825,74.757935 504.278137,78.089165 
	C504.226410,80.635704 505.365662,81.795219 507.886932,81.642357 
	C508.052795,81.632301 508.220459,81.639961 508.386688,81.649254 
	C522.580566,82.441559 522.580627,82.441635 522.773743,68.306923 
	C522.872559,61.077755 524.662231,59.271057 531.990967,59.004929 
	C532.323914,58.992836 532.662170,59.028843 532.989990,58.984085 
	C536.708557,58.476341 541.827271,60.854481 543.890015,57.696396 
	C546.571716,53.590664 544.704102,47.985973 544.785095,43.030319 
	C544.820618,40.851406 543.184692,40.383419 541.323425,40.389187 
	C537.990601,40.399521 534.657104,40.398544 531.324829,40.344654 
	C527.694580,40.285946 525.722839,38.384098 525.689514,34.767094 
	C525.615967,26.768761 525.635315,18.769381 525.652161,10.770503 
	C525.659241,7.423346 527.374207,5.220299 530.702759,5.132697 
	C534.018188,5.045439 535.990906,7.241494 536.170959,10.465392 
	C536.421509,14.951930 536.532898,19.476446 536.240295,23.954414 
	C535.961304,28.223417 537.261719,30.246038 541.802917,29.726849 
	C544.105713,29.463572 546.464966,29.638807 548.796753,29.695049 
	C554.057678,29.821938 556.041138,31.654341 556.180725,36.926487 
	C556.334961,42.755444 556.354065,48.594547 556.195068,54.422764 
	C556.100098,57.903259 557.561584,59.191628 560.932251,59.127842 
	C577.600647,58.812420 574.426392,61.202682 574.678467,46.005325 
	C574.855286,35.342503 574.694458,24.674295 574.726624,14.008620 
	C574.731628,12.354249 574.722412,10.635981 575.144958,9.061350 
	C575.813782,6.569263 577.668884,5.016548 580.268433,5.081892 
	C582.792480,5.145339 584.794006,6.476943 585.274780,9.138755 
	C585.686768,11.419785 585.922180,13.763859 585.931519,16.081268 
	C585.982361,28.746504 586.040405,41.413483 585.869324,54.076801 
	C585.815186,58.082069 587.037598,59.656578 591.291809,59.649815 
	C604.655762,59.628567 604.653137,59.783836 604.646912,46.461403 
	C604.641663,35.129025 604.696228,23.796272 604.614685,12.464475 
	C604.586426,8.538027 605.407776,5.062173 610.022095,5.151437 
	C614.580688,5.239623 615.357422,8.815452 615.348450,12.662934 
	C615.316223,26.495022 615.445679,40.328434 615.284363,54.158669 
	C615.238708,58.071121 616.478821,59.415421 620.491821,59.265182 
	C633.861389,58.764648 633.854553,58.892914 633.882751,45.559280 
	C633.889771,42.228790 633.794678,38.878922 634.113220,35.573292 
	C634.482422,31.741852 636.606445,29.507835 640.739014,29.676001 
	C642.402649,29.743700 644.071533,29.681122 645.738037,29.681286 
	C653.722656,29.682074 653.722168,29.682493 653.738953,21.456383 
	C653.746155,17.956858 653.650757,14.452973 653.795593,10.959096 
	C653.928284,7.758162 655.603210,5.409266 658.869629,5.133720 
	C662.212524,4.851723 664.179138,6.934461 664.532715,10.193847 
	C665.433228,18.495905 665.257263,26.827789 664.624329,35.130821 
	C664.360535,38.591736 662.117004,40.447956 658.508179,40.355812 
	C658.175293,40.347313 657.838501,40.333961 657.508911,40.370998 
	C653.607056,40.809464 648.109863,38.450901 646.129395,41.603764 
	C643.486938,45.810532 645.330017,51.649227 645.374207,56.781330 
	C645.398682,59.620857 647.735413,59.693283 649.775757,59.485661 
	C653.777649,59.078442 657.746399,59.139301 661.742615,59.573925 
	C665.361389,59.967499 667.130798,61.959911 667.227051,65.461792 
	C667.337036,69.458900 667.397278,73.462921 667.287354,77.458664 
	C667.207703,80.355110 668.168152,81.817940 671.295105,81.679955 
	C674.787842,81.525826 678.297668,81.538422 681.791199,81.687088 
	C684.906250,81.819649 685.905396,80.341438 685.816040,77.455116 
	C685.718201,74.293060 685.734253,71.117722 685.908630,67.959663 
	C686.095032,64.584076 687.780762,61.964462 691.317322,61.872730 
	C699.807983,61.652515 708.309937,61.752468 716.803955,61.907207 
	C717.998169,61.928963 719.173462,62.983498 720.678772,63.779984 
	C721.000000,65.714355 721.000000,67.428719 720.708008,69.840248 
	C718.940857,72.167488 717.019104,72.448441 714.953918,72.430817 
	C711.126892,72.398148 707.298157,72.493820 703.472229,72.422974 
	C699.068970,72.341446 696.433411,73.807472 697.069275,78.820450 
	C697.318604,80.785835 697.189941,82.812592 697.098694,84.805229 
	C696.845703,90.329910 694.897766,92.236458 689.436523,92.323616 
	C686.275513,92.374062 683.113098,92.326576 679.951294,92.327255 
	C667.175537,92.330009 667.348145,92.332306 667.218994,105.362808 
	C667.175232,109.782097 668.625977,111.133011 672.958557,111.059601 
	C685.934753,110.839737 698.917542,111.036484 711.896973,110.956207 
	C715.136292,110.936188 718.176086,111.377113 721.000000,113.000000 
	C721.000000,115.041664 721.000000,117.083336 720.661804,119.749313 
	C718.098999,122.190346 715.467346,122.288063 712.760376,122.277840 
	C701.941101,122.236977 691.121643,122.254608 680.302246,122.252243 
	C667.188660,122.249382 667.339294,122.251297 667.234802,135.382858 
	C667.201965,139.517166 668.491760,140.894501 672.630371,140.830139 
	C686.109863,140.620499 699.594727,140.776031 713.076782,140.687958 
	C716.009583,140.668793 718.706299,141.032806 721.000000,143.000000 
	C721.000000,145.041672 721.000000,147.083328 720.634888,149.693573 
	C717.430298,151.978912 714.281067,152.051300 711.098816,152.039932 
	C698.290710,151.994186 685.482361,151.947601 672.674316,151.972412 
	C670.465820,151.976685 667.457764,151.362198 667.434265,154.893143 
	C667.401550,159.834549 665.521240,165.624161 668.295593,169.473190 
	C670.525940,172.567505 676.106140,170.214417 680.174194,170.633347 
	C680.997314,170.718124 681.836365,170.647049 682.668091,170.648010 
	C696.711182,170.664291 696.836243,170.662247 697.068176,184.873077 
	C697.132690,188.826187 698.570190,190.016891 702.373535,190.060257 
	C708.617249,190.131424 715.061340,188.842194 721.000000,192.000000 
	C721.000000,194.041672 721.000000,196.083328 720.672241,198.769714 
	C718.561584,200.813538 716.536194,201.298325 714.279907,201.278839 
	C707.286438,201.218399 700.291138,201.328003 693.298645,201.224808 
	C688.179993,201.149261 686.415588,199.062653 685.776917,193.911240 
	C685.268677,189.811600 688.184204,184.205078 683.945923,181.961227 
	C680.533630,180.154709 675.488831,181.476364 671.171814,181.317703 
	C668.447144,181.217575 667.201538,182.315750 667.283325,185.131226 
	C667.394470,188.957687 667.321167,192.790573 667.277527,196.620148 
	C667.227417,201.024628 665.186462,203.467148 660.558533,203.410309 
	C656.729309,203.363266 652.898743,203.412613 649.068909,203.438263 
	C647.353333,203.449738 645.444641,203.500107 645.365234,205.783630 
	C645.177673,211.183487 644.866699,216.607803 645.599121,222.241074 
	C649.835022,222.241074 653.493225,222.045090 657.122498,222.285522 
	C663.047791,222.678055 664.671082,224.364456 664.919678,230.383240 
	C665.118835,235.204422 664.988525,240.039474 664.992126,244.868378 
	C664.995239,249.020432 665.370544,253.236526 663.000000,257.000000 
	C660.958313,257.000000 658.916687,257.000000 656.218384,256.678284 
	C653.267578,253.283890 653.785950,249.695969 653.763611,246.231491 
	C653.682678,233.677979 653.702332,233.677841 641.507935,233.293594 
	C641.341492,233.288345 641.174622,233.284531 641.008179,233.288513 
	C636.445007,233.397644 634.243530,230.899612 633.993164,226.607117 
	C633.789795,223.119720 633.889587,219.613693 633.883118,216.115891 
	C633.859314,203.209732 633.862854,203.382294 620.850647,203.319824 
	C616.319946,203.298096 615.201660,205.016647 615.267700,209.229614 
	C615.474060,222.386383 615.297607,235.548752 615.363647,248.708466 
	C615.378052,251.580917 615.131653,254.346695 614.000000,257.000000 
	C611.629456,257.000000 609.258850,257.000000 606.279236,256.610901 
	C604.513733,254.250229 604.631470,252.067505 604.630127,249.906784 
	C604.622925,238.593307 604.608276,227.279800 604.617554,215.966339 
	C604.627930,203.351349 604.634033,203.558533 591.733948,203.318100 
	C586.930054,203.228577 585.789734,205.028580 585.868958,209.436417 
	C586.096130,222.076981 585.963928,234.723969 585.975586,247.368439 
	C585.978699,250.715607 585.891418,254.042313 584.000000,257.000000 
	C581.958313,257.000000 579.916687,257.000000 577.201050,256.690491 
	C574.764587,254.324356 574.685120,251.852249 574.692993,249.317184 
	C574.726746,238.501678 574.718384,227.686035 574.718811,216.870438 
	C574.719360,202.257889 574.702698,202.296707 560.085266,203.411331 
	C557.407593,203.615509 556.140808,204.487030 556.219238,207.295258 
	C556.335449,211.451660 556.233643,215.614014 556.233276,219.773834 
	C556.232056,233.248871 556.233582,233.248932 542.568298,233.301788 
	C542.069092,233.303711 541.563599,233.354248 541.071777,233.294022 
	C537.290039,232.831039 536.287109,234.641113 536.224487,238.225082 
	C536.114990,244.488892 537.423645,250.881241 535.000000,257.000000 
	C532.629456,257.000000 530.258850,257.000000 527.444153,257.000000 
M602.500000,162.895538 
	C608.990479,162.896881 615.483276,162.794403 621.970398,162.942444 
	C625.319153,163.018875 626.776367,161.906113 626.721741,158.351807 
	C626.567017,148.288910 627.205078,149.001160 618.563660,149.274521 
	C617.902527,149.295441 617.214966,149.283295 616.577942,149.128906 
	C613.608765,148.409378 611.838318,146.439301 612.048157,143.437668 
	C612.240845,140.681931 614.039124,138.903091 616.955322,138.697235 
	C618.778503,138.568542 620.618530,138.522720 622.443298,138.607285 
	C625.329468,138.741043 626.571167,137.643082 626.719604,134.576874 
	C627.182312,125.014755 627.293396,125.020035 617.744324,124.327782 
	C617.578430,124.315758 617.411804,124.313629 617.245422,124.309868 
	C614.280701,124.242737 612.477966,122.576782 612.147827,119.811531 
	C611.780823,116.737671 613.647339,114.796745 616.491333,113.983406 
	C617.737732,113.626953 619.155273,113.588905 620.454041,113.745956 
	C625.157959,114.314796 627.381104,112.550194 626.679321,107.636581 
	C626.516174,106.494629 626.582275,105.305267 626.662964,104.146072 
	C626.850220,101.455078 625.763977,100.140152 622.948853,100.145401 
	C604.309814,100.180176 585.670532,100.155556 567.031372,100.164528 
	C565.276062,100.165375 563.880676,100.487846 563.384521,102.677025 
	C561.599609,110.553528 563.533020,113.263596 571.495850,113.693398 
	C572.324524,113.738129 573.195557,113.696739 573.968628,113.942101 
	C576.609436,114.780228 578.329590,116.546494 578.144653,119.419746 
	C577.962402,122.252075 576.252747,123.972908 573.368408,124.279617 
	C572.049927,124.419823 570.706848,124.416626 569.379211,124.366310 
	C565.984436,124.237671 563.224182,124.260231 563.254211,129.139633 
	C563.309082,138.050293 563.056580,138.054764 568.707153,138.472702 
	C572.733093,138.770447 578.085022,137.764648 577.979126,143.922989 
	C577.877014,149.855118 572.733459,149.588348 568.596985,149.233154 
	C562.572449,148.715881 563.413879,152.683395 563.322327,156.353027 
	C563.229187,160.085587 563.043701,163.183655 568.551819,163.000214 
	C579.523560,162.634796 590.516052,162.894089 602.500000,162.895538 
M656.608215,172.360397 
	C656.608215,141.307114 656.608215,110.253838 656.608215,79.200562 
	C656.187744,79.021744 655.767273,78.842926 655.346863,78.664108 
	C650.403198,83.771591 645.544983,88.965988 640.477661,93.947716 
	C638.150452,96.235588 637.303345,98.728363 637.321289,101.947403 
	C637.424561,120.418327 637.624023,138.895691 637.223389,157.358551 
	C637.089111,163.548065 638.528320,168.226334 643.417786,172.101807 
	C647.598206,175.415268 650.697632,180.013657 655.460022,183.316635 
	C656.934082,179.615097 656.523743,176.433594 656.608215,172.360397 
M552.659363,100.081757 
	C552.731445,98.365128 552.483826,96.697121 551.250610,95.426315 
	C545.956604,89.970970 540.617676,84.559135 534.550293,78.371872 
	C534.550293,114.185661 534.550293,148.726959 534.550293,184.831818 
	C539.922424,179.214325 544.160522,174.507965 548.710510,170.125397 
	C551.556030,167.384552 552.773010,164.455780 552.738708,160.450638 
	C552.569031,140.623688 552.664246,120.794479 552.659363,100.081757 
z"/>
<path fill="#000000" opacity="1.000000" stroke="none" 
	d="
M356.770386,121.808701 
	C360.343628,115.975105 365.950531,110.640884 366.463409,104.855110 
	C366.986176,98.957603 360.489868,93.821640 357.082916,88.347801 
	C351.717255,79.726944 346.117462,71.252129 340.666870,62.683632 
	C337.774902,58.137325 338.611389,56.584118 343.886505,56.092369 
	C348.781006,55.636101 352.334839,56.976852 355.022919,61.603622 
	C360.287750,70.665535 366.126221,79.394775 371.754791,88.244202 
	C372.805847,89.896744 373.653229,91.750580 376.036957,93.063797 
	C379.294434,87.861160 382.552216,82.689339 385.777832,77.497543 
	C389.028076,72.266014 392.626038,67.204208 395.366058,61.715775 
	C397.838013,56.764366 401.600525,55.721584 406.431732,56.179298 
	C411.158630,56.627136 411.933319,58.135212 409.358063,62.293049 
	C401.644196,74.747345 394.045685,87.279991 386.002869,99.519707 
	C383.396149,103.486702 383.462769,106.293419 386.068756,110.182838 
	C394.221863,122.351242 401.986969,134.780380 409.842438,147.146591 
	C410.947845,148.886734 412.955719,150.624283 411.608612,152.962402 
	C410.395477,155.067947 408.021942,154.105392 406.122498,154.394089 
	C401.338257,155.121201 398.515686,152.919632 396.083740,148.880646 
	C389.408936,137.795044 382.346436,126.942902 374.998352,115.302910 
	C372.736603,118.806839 370.830719,121.652557 369.032806,124.564934 
	C363.698242,133.206085 358.443451,141.896683 353.079346,150.519348 
	C350.917908,153.993774 343.652313,155.932037 340.289764,153.984222 
	C337.753113,152.514801 338.934113,150.493149 339.949554,148.820297 
	C343.922455,142.275284 348.015076,135.802917 352.065948,129.305298 
	C353.562805,126.904350 355.067383,124.508209 356.770386,121.808701 
z"/>
<path fill="#000000" opacity="1.000000" stroke="none" 
	d="
M194.907181,125.187439 
	C199.158981,115.352013 206.912155,109.386528 215.145218,103.849068 
	C220.809891,100.039085 226.506729,96.259727 231.973190,92.177460 
	C236.827744,88.552162 239.346054,83.631065 238.242813,77.391273 
	C237.173401,71.342964 234.215439,68.554840 228.138016,67.292534 
	C218.630325,65.317741 209.246918,67.059608 199.842438,68.116692 
	C194.256256,68.744598 191.957825,66.532425 193.078415,61.550571 
	C193.598694,59.237461 195.152328,58.269611 197.229004,57.795784 
	C208.886475,55.135910 220.653946,54.610889 232.408936,56.745319 
	C240.528763,58.219688 247.198044,62.077702 249.808228,70.602623 
	C252.695358,80.032082 251.374405,88.702614 244.606735,96.214989 
	C239.065155,102.366333 231.925308,106.438095 225.203995,111.043404 
	C220.117737,114.528404 214.954987,117.899162 210.569061,122.288437 
	C206.410446,126.450211 204.145905,131.510437 203.365204,137.306122 
	C202.831726,141.266617 204.120880,143.040985 208.474426,142.959793 
	C220.299515,142.739258 232.132065,142.831726 243.960663,142.925034 
	C249.043900,142.965134 250.388763,144.673752 250.194534,149.674500 
	C250.063950,153.036499 248.475235,154.408325 245.180099,154.398468 
	C229.019073,154.350067 212.857742,154.349045 196.696747,154.401276 
	C193.364761,154.412048 191.809525,152.952942 191.734467,149.632034 
	C191.549515,141.448181 191.491776,133.292328 194.907181,125.187439 
z"/>
<path fill="#000000" opacity="1.000000" stroke="none" 
	d="
M270.661469,84.033188 
	C270.758698,80.378914 270.483582,77.153694 271.020294,74.069756 
	C272.972473,62.852173 280.520355,56.324867 292.718689,55.808399 
	C302.030945,55.414124 311.376526,55.870636 320.706085,55.796295 
	C325.474487,55.758301 326.440155,58.273479 326.410187,62.485687 
	C326.379700,66.765457 324.179413,67.382812 320.701172,67.336845 
	C312.537720,67.228935 304.370911,67.246323 296.206909,67.337921 
	C287.029846,67.440887 283.589874,70.883369 283.376740,80.082809 
	C283.280304,84.246460 283.564789,88.428047 283.289368,92.575790 
	C283.029633,96.487053 284.391357,97.874115 288.388702,97.790787 
	C299.048523,97.568542 309.717163,97.803635 320.380096,97.676193 
	C324.599121,97.625771 326.437073,99.250610 326.379395,103.582260 
	C326.325806,107.607994 324.692535,109.334908 320.676453,109.302971 
	C310.179321,109.219505 299.675049,109.494621 289.185852,109.196571 
	C284.486847,109.063042 283.151733,110.720627 283.262817,115.251045 
	C283.532379,126.242165 283.205200,137.247177 283.418640,148.240768 
	C283.504547,152.664795 282.194366,154.664383 277.465027,154.454269 
	C271.374878,154.183701 270.693420,153.860001 270.683594,148.014023 
	C270.648071,126.851753 270.664703,105.689400 270.661469,84.033188 
z"/>
<path fill="#000000" opacity="1.000000" stroke="none" 
	d="
M157.809113,130.999756 
	C157.797424,108.204651 157.773148,85.909485 157.782013,63.614330 
	C157.784698,56.871780 161.748520,54.196030 168.180283,56.447971 
	C171.556366,57.630032 171.185165,60.453110 171.187149,63.082027 
	C171.202393,83.214195 171.244186,103.346626 171.157303,123.478455 
	C171.117889,132.614380 171.711716,141.774033 170.337906,150.876648 
	C168.773239,161.243530 163.093643,169.751007 157.499771,178.146439 
	C155.114059,181.727005 150.515060,180.461044 146.807800,179.645157 
	C145.264221,179.305450 145.285828,177.543549 145.760223,176.239563 
	C146.325668,174.685287 146.988510,173.115753 147.899384,171.745773 
	C156.035522,159.508896 159.478088,146.139465 157.809113,130.999756 
z"/>
<path fill="#000000" opacity="1.000000" stroke="none" 
	d="
M169.735046,213.797150 
	C179.763260,209.045334 185.178116,212.441193 185.197327,223.029831 
	C185.202469,225.858017 185.191605,228.687378 185.114731,231.514206 
	C185.057999,233.600632 184.203491,235.077408 181.833817,235.005508 
	C179.772446,234.942963 178.984848,233.685974 178.823868,231.761780 
	C178.667679,229.894760 179.282440,227.394165 176.135651,227.431992 
	C173.118164,227.468246 173.481094,229.808273 173.391266,231.770737 
	C173.317108,233.391113 172.950226,234.785950 170.997650,234.955246 
	C169.531281,235.082382 167.933319,234.591049 167.970856,233.079636 
	C168.128616,226.728577 165.945953,220.173172 169.735046,213.797150 
M175.769241,221.829071 
	C177.791153,221.867188 179.135788,221.134018 178.439697,218.882767 
	C177.950790,217.301590 176.349030,216.966904 175.172012,217.677856 
	C173.358398,218.773300 172.575455,220.339264 175.769241,221.829071 
z"/>
<path fill="#000000" opacity="1.000000" stroke="none" 
	d="
M412.677979,213.033081 
	C414.979126,214.356827 415.699310,216.302582 415.798889,218.287170 
	C416.023468,222.764282 416.016815,227.257233 415.962555,231.742020 
	C415.940491,233.564835 415.082184,234.958267 412.964050,235.010437 
	C410.898926,235.061310 410.003021,233.940720 409.799561,231.975143 
	C409.592499,229.974564 410.308716,227.210876 406.801971,227.442551 
	C403.729645,227.645554 404.478210,230.146927 404.317444,231.993011 
	C404.171417,233.669586 403.719788,234.942642 401.749756,234.965683 
	C399.686523,234.989807 398.699463,233.912888 398.696259,231.894104 
	C398.688843,227.236176 398.619446,222.576508 398.722992,217.920853 
	C398.791382,214.846710 400.672058,213.131866 403.515533,212.300125 
	C406.521057,211.421005 409.435669,211.737396 412.677979,213.033081 
M405.993622,221.730545 
	C407.898987,221.913681 409.818085,221.968338 409.478821,219.216339 
	C409.278320,217.589813 407.895294,217.136383 406.541962,217.525177 
	C404.313446,218.165359 403.741882,219.549026 405.993622,221.730545 
z"/>
<path fill="#000000" opacity="1.000000" stroke="none" 
	d="
M260.177124,235.043213 
	C259.066528,234.592117 257.887573,234.252136 257.788239,233.713135 
	C256.606537,227.302597 255.946930,220.620117 257.874176,214.497421 
	C259.129700,210.508743 264.151093,211.695633 267.660095,211.963577 
	C271.948059,212.291031 274.868011,214.754684 275.183441,219.223358 
	C275.475677,223.363800 275.270477,227.540512 275.252991,231.701126 
	C275.245178,233.557358 274.662384,235.010422 272.455566,235.032623 
	C270.140900,235.055908 269.143494,233.657837 269.072266,231.569855 
	C268.958801,228.244629 269.029114,224.913483 268.943817,221.586823 
	C268.890228,219.497787 268.609924,217.351059 265.789276,217.489960 
	C263.146362,217.620132 263.355835,219.765121 263.330688,221.586426 
	C263.287018,224.748505 263.314392,227.911484 263.292938,231.073959 
	C263.279938,232.984528 263.152161,234.841614 260.177124,235.043213 
z"/>
<path fill="#000000" opacity="1.000000" stroke="none" 
	d="
M137.293823,223.939636 
	C136.684280,231.989319 133.308456,235.616501 127.172951,235.257339 
	C121.261742,234.911301 118.538483,230.977554 118.678711,222.987320 
	C118.808052,215.617706 121.970085,211.780136 127.904488,211.790527 
	C133.850555,211.800964 136.863495,215.560013 137.293823,223.939636 
M130.763046,221.886002 
	C130.682251,219.760071 130.249664,217.554779 127.652519,217.679947 
	C124.897873,217.812714 124.989449,220.360977 125.126381,222.269287 
	C125.310486,224.834793 123.744919,229.003830 127.632607,229.240372 
	C131.701996,229.487976 130.440811,225.291397 130.763046,221.886002 
z"/>
<path fill="#000000" opacity="1.000000" stroke="none" 
	d="
M369.597992,224.003189 
	C369.598969,222.346817 369.417358,221.145035 369.637817,220.022202 
	C370.162994,217.347672 368.030396,213.786926 372.176758,212.270721 
	C376.120270,210.828720 382.777710,211.952515 384.786957,214.775558 
	C387.020569,217.913818 387.265747,221.277252 384.551239,224.370453 
	C383.294159,225.802856 383.845245,227.104431 384.461731,228.507965 
	C385.246582,230.294861 386.756500,231.825058 386.447449,234.313156 
	C379.738037,237.539291 380.075958,229.456711 376.539337,227.796799 
	C374.636169,229.074661 375.553467,230.920944 375.304199,232.444717 
	C375.056396,233.959396 374.433380,234.948135 372.808136,235.000412 
	C371.073547,235.056213 369.840424,234.337677 369.751465,232.483002 
	C369.623901,229.823563 369.642181,227.157135 369.597992,224.003189 
M377.506683,221.693054 
	C379.344574,221.549866 381.013123,221.109207 379.880127,218.756668 
	C379.251007,217.450363 377.758789,216.901581 376.542572,217.800720 
	C374.897827,219.016647 374.823578,220.492645 377.506683,221.693054 
z"/>
<path fill="#000000" opacity="1.000000" stroke="none" 
	d="
M99.770218,215.551697 
	C101.979515,219.823349 101.673706,224.049057 101.082176,228.124695 
	C100.425453,232.649643 97.279816,234.998871 92.743553,235.235672 
	C88.220482,235.471802 85.081909,233.486420 83.670616,229.063568 
	C82.900894,226.651321 82.733917,224.171417 82.936371,221.664963 
	C83.262718,217.624588 84.543587,214.172226 88.719391,212.575821 
	C92.930382,210.965973 96.516685,211.942032 99.770218,215.551697 
M94.672859,219.480881 
	C93.846672,217.667847 92.432434,216.719849 90.850182,218.228210 
	C88.073662,220.875122 89.295570,224.356705 89.656509,227.515381 
	C89.809380,228.853119 91.054222,229.734528 92.611160,229.472916 
	C94.181610,229.209030 94.747284,227.988449 94.819168,226.616440 
	C94.930038,224.500320 94.856705,222.374573 94.672859,219.480881 
z"/>
<path fill="#000000" opacity="1.000000" stroke="none" 
	d="
M348.674377,224.843094 
	C348.675140,216.360046 350.174133,213.622604 355.333588,212.228531 
	C360.504364,210.831390 365.102386,213.425690 366.342163,218.645126 
	C366.833649,220.714188 367.108978,222.908478 367.022736,225.027039 
	C366.761383,231.449097 363.362579,235.123474 357.862701,235.258942 
	C352.266968,235.396759 349.265259,232.139771 348.674377,224.843094 
M356.854462,229.398895 
	C359.203217,229.793457 360.426453,228.471863 360.545715,226.422028 
	C360.705017,223.684174 361.727112,220.599701 359.427429,218.343262 
	C357.658905,216.608032 355.986450,217.541901 355.204010,219.643097 
	C353.991058,222.900406 353.826385,226.132843 356.854462,229.398895 
z"/>
<path fill="#000000" opacity="1.000000" stroke="none" 
	d="
M236.627106,219.934174 
	C238.231232,213.947998 241.633896,211.295746 246.501404,211.860611 
	C251.490540,212.439590 254.187973,215.737259 254.360809,221.565582 
	C254.419693,223.551224 254.484634,225.555756 254.288864,227.526047 
	C253.831894,232.124985 250.712784,234.977524 246.068848,235.247147 
	C241.222153,235.528519 237.585083,232.829208 236.709900,228.236938 
	C236.211014,225.619125 236.046951,222.980713 236.627106,219.934174 
M248.285522,227.407333 
	C248.397461,226.763199 248.639496,226.110687 248.598694,225.476395 
	C248.426880,222.805618 249.598785,219.738113 246.575043,217.850815 
	C245.624405,217.257477 244.627258,217.533096 243.874451,218.286026 
	C241.572037,220.588776 242.090179,223.586975 242.534851,226.223587 
	C243.074570,229.423676 244.891113,231.071869 248.285522,227.407333 
z"/>
<path fill="#000000" opacity="1.000000" stroke="none" 
	d="
M68.323776,226.072266 
	C68.309357,228.368271 68.305222,230.195847 68.276482,232.023026 
	C68.249847,233.717087 67.621902,234.938477 65.722260,235.043167 
	C63.744282,235.152191 62.330482,234.207260 62.322872,232.250916 
	C62.300285,226.447754 62.480618,220.642975 62.657562,214.841125 
	C62.675205,214.262573 63.067886,213.399155 63.530788,213.177048 
	C67.466751,211.288498 71.538643,211.252914 75.626770,212.660385 
	C78.903084,213.788376 80.198914,216.350311 80.274574,219.603226 
	C80.363411,223.422607 80.319107,227.245117 80.329880,231.066269 
	C80.335968,233.227615 80.029984,235.185196 77.184662,235.061737 
	C74.186523,234.931641 74.520348,232.710281 74.535133,230.704941 
	C74.555946,227.880646 74.648621,225.053299 74.550377,222.232834 
	C74.473160,220.015854 74.130699,217.622650 71.269547,217.488251 
	C67.941643,217.331955 68.429131,220.015945 68.332794,222.114990 
	C68.279533,223.275558 68.323296,224.440613 68.323776,226.072266 
z"/>
<path fill="#000000" opacity="1.000000" stroke="none" 
	d="
M296.119446,230.184662 
	C295.871033,225.123016 295.765259,220.473801 295.672821,215.824310 
	C295.631958,213.769943 296.156769,212.131317 298.668518,212.229370 
	C300.882874,212.315842 301.322723,213.830109 301.326355,215.673676 
	C301.332886,219.000244 301.305328,222.328384 301.400513,225.652756 
	C301.462250,227.808975 302.105927,229.645859 304.760681,229.722885 
	C307.558807,229.804092 307.396027,227.670166 307.466980,225.893570 
	C307.606323,222.405228 307.612152,218.911026 307.641083,215.418991 
	C307.657166,213.473022 308.385254,212.158463 310.520142,212.196182 
	C312.661652,212.234024 313.314087,213.617157 313.309814,215.530975 
	C313.298248,220.687210 313.307770,225.843491 313.307373,230.999756 
	C313.307251,232.590775 312.889221,233.845016 311.265228,234.632614 
	C306.592804,236.898697 299.293304,234.988159 296.119446,230.184662 
z"/>
<path fill="#000000" opacity="1.000000" stroke="none" 
	d="
M139.383102,218.890610 
	C141.851883,213.103302 146.333298,210.720154 151.790558,212.013321 
	C153.394714,212.393448 155.190735,212.700104 155.177261,214.945328 
	C155.162308,217.434143 153.250504,217.174408 151.622070,217.318253 
	C145.726791,217.839020 143.921265,220.577316 145.407455,226.705002 
	C145.735062,228.055786 146.228607,229.408829 147.822388,229.436691 
	C149.744080,229.470337 149.619476,227.847321 149.677109,226.542007 
	C149.761810,224.624130 149.867844,222.791962 152.500824,222.792770 
	C155.502625,222.793716 155.580093,225.003616 155.327820,226.962158 
	C154.953522,229.868073 157.418808,233.973816 152.268372,235.108444 
	C146.681366,236.339279 141.902130,234.422806 140.003372,230.025299 
	C138.510117,226.566956 138.434448,222.942337 139.383102,218.890610 
z"/>
<path fill="#000000" opacity="1.000000" stroke="none" 
	d="
M35.397018,211.821259 
	C36.492451,211.764603 37.164227,211.681107 37.817032,211.758224 
	C40.026764,212.019287 43.065739,211.506363 43.028614,214.861267 
	C42.991760,218.191650 39.944908,216.993332 38.026672,217.320709 
	C37.017540,217.492920 36.036293,217.562576 35.564384,218.807297 
	C35.945465,221.529724 38.244297,220.548019 39.830292,220.754807 
	C41.721943,221.001434 43.093197,221.675873 42.974594,223.776093 
	C42.864624,225.723480 41.313759,225.928589 39.753613,226.140701 
	C38.248337,226.345367 35.757973,225.536896 35.720512,227.833084 
	C35.675476,230.593399 38.403545,229.517151 39.997547,229.793701 
	C41.797619,230.105988 43.304283,230.532120 43.130524,232.774445 
	C42.980064,234.716171 41.520954,234.997223 39.960648,235.236404 
	C32.063778,236.446960 28.862373,233.696106 28.790138,225.572052 
	C28.773920,223.747971 28.813848,221.922806 28.767139,220.099701 
	C28.654486,215.702576 30.433340,212.755920 35.397018,211.821259 
z"/>
<path fill="#000000" opacity="1.000000" stroke="none" 
	d="
M202.307800,226.718491 
	C201.346756,230.464371 204.089645,229.558167 205.806992,229.780960 
	C207.632294,230.017792 209.871582,229.806534 209.843155,232.376923 
	C209.812836,235.119125 207.479599,235.138611 205.445206,235.275223 
	C198.184799,235.762711 195.729843,233.506729 195.665405,226.253937 
	C195.647644,224.254822 195.637634,222.254883 195.672455,220.256165 
	C195.791092,213.446915 201.146362,209.811676 207.561813,212.145081 
	C208.912170,212.636200 210.011230,213.293579 209.870804,214.942535 
	C209.731262,216.581299 208.613327,217.030930 207.144974,217.285645 
	C205.244919,217.615250 202.624252,216.284027 201.732498,219.286453 
	C202.550308,221.306152 204.260559,220.671417 205.649887,220.742767 
	C207.571274,220.841431 209.578415,220.892014 209.543015,223.465912 
	C209.507385,226.057388 207.365738,225.963577 205.534454,226.134567 
	C204.545120,226.226913 203.560349,226.368042 202.307800,226.718491 
z"/>
<path fill="#000000" opacity="1.000000" stroke="none" 
	d="
M281.435547,235.112381 
	C279.309601,234.499435 277.817810,233.658020 278.270050,231.561310 
	C278.685059,229.637070 280.402710,229.821335 281.901337,229.738541 
	C283.327667,229.659698 284.916382,230.085861 286.059448,228.652176 
	C285.421326,225.898621 282.791595,225.474686 281.027893,224.126190 
	C277.360931,221.322433 276.493927,217.091080 279.081696,214.210510 
	C281.476746,211.544449 289.648102,210.735489 291.617950,213.158401 
	C292.934723,214.778015 293.122711,216.686401 290.407043,217.215363 
	C288.676453,217.552444 286.862396,217.461075 285.126068,217.559555 
	C284.656891,220.019104 286.382599,220.365189 287.585388,221.052216 
	C291.076904,223.046585 294.276306,225.370041 292.961365,230.018707 
	C291.607178,234.806183 287.552246,235.337906 283.348541,235.267654 
	C282.850372,235.259338 282.352844,235.213104 281.435547,235.112381 
z"/>
<path fill="#000000" opacity="1.000000" stroke="none" 
	d="
M220.713470,217.204346 
	C223.109116,212.496582 226.862427,211.376831 231.345016,212.046143 
	C232.883530,212.275879 234.198364,213.025757 234.149597,214.951904 
	C234.096802,217.036194 232.644745,217.383789 231.058655,217.276871 
	C226.419205,216.964142 226.038940,219.929321 226.097717,223.413345 
	C226.153336,226.710815 226.016068,229.999207 230.820999,229.774170 
	C232.585953,229.691528 234.262543,230.027496 234.174133,232.384979 
	C234.093353,234.538574 232.555573,234.994156 230.773712,235.235458 
	C225.034912,236.012680 220.623474,232.803146 219.879364,226.924988 
	C219.486404,223.820724 219.272919,220.620743 220.713470,217.204346 
z"/>
<path fill="#000000" opacity="1.000000" stroke="none" 
	d="
M45.684387,226.627136 
	C45.712299,223.859589 45.519062,221.497711 45.862267,219.216537 
	C46.660759,213.909286 52.524319,210.431259 57.531521,212.082901 
	C59.072433,212.591171 60.279766,213.338989 60.056366,215.228867 
	C59.852077,216.957077 58.578987,217.373123 57.169579,217.269104 
	C52.560356,216.928940 51.459938,219.752701 51.459930,223.519592 
	C51.459923,227.262848 52.493187,230.124252 57.126720,229.809479 
	C58.778576,229.697250 60.149822,230.329071 60.080696,232.318192 
	C60.017536,234.135666 58.730473,234.804153 57.144318,235.164856 
	C51.511047,236.445938 47.341640,233.507889 45.684387,226.627136 
z"/>
<path fill="#000000" opacity="1.000000" stroke="none" 
	d="
M14.357340,211.940460 
	C17.794216,211.938004 20.775530,211.912491 23.753044,212.006836 
	C25.275070,212.055084 26.805704,212.326096 27.095055,214.261642 
	C27.369267,216.095917 26.482988,217.079788 24.698402,217.302795 
	C22.177872,217.617752 22.154015,219.484009 22.135500,221.367569 
	C22.101339,224.843491 22.132984,228.322037 22.000364,231.794281 
	C21.919022,233.923965 20.753679,235.195023 18.492199,235.052094 
	C16.373501,234.918198 15.776820,233.457153 15.754757,231.616409 
	C15.723011,228.967773 15.756295,226.317963 15.695749,223.670181 
	C15.630976,220.837479 16.281521,218.311234 12.181401,216.679337 
	C9.126541,215.463455 10.558461,212.640671 14.357340,211.940460 
z"/>
<path fill="#000000" opacity="1.000000" stroke="none" 
	d="
M341.912964,232.427216 
	C341.151886,234.789154 339.721313,235.381195 337.871735,234.909607 
	C335.762238,234.371719 335.790833,232.558563 335.761414,230.884216 
	C335.714600,228.220032 335.726807,225.554688 335.726501,222.889832 
	C335.726227,220.242401 336.237610,217.394241 332.234589,217.002930 
	C330.785187,216.861237 330.716461,215.434647 330.849487,214.220184 
	C331.005493,212.795792 332.080231,212.173355 333.276825,212.144058 
	C337.098816,212.050537 340.926392,212.058624 344.748230,212.161362 
	C345.975708,212.194366 346.957520,212.905655 347.100067,214.312561 
	C347.229614,215.591171 346.898315,216.889694 345.543640,217.038742 
	C341.533997,217.479843 342.142273,220.377625 342.113647,222.999817 
	C342.080902,225.996674 342.037445,228.993423 341.912964,232.427216 
z"/>
<path fill="#000000" opacity="1.000000" stroke="none" 
	d="
M107.134689,234.235901 
	C104.505142,232.450623 103.817863,230.128159 103.787895,227.542267 
	C103.743797,223.736771 103.780724,219.930359 103.743408,216.124725 
	C103.721687,213.908722 104.158241,212.069626 106.911873,212.150131 
	C109.543457,212.227066 110.135437,214.020187 110.140900,216.231506 
	C110.148682,219.375519 110.220230,222.520813 110.151825,225.663116 
	C110.096611,228.199387 110.854179,229.814590 113.742165,229.820663 
	C115.453217,229.824265 117.208328,230.125320 117.168365,232.439072 
	C117.124680,234.967880 115.227997,235.202881 113.327545,235.254791 
	C111.350174,235.308792 109.340546,235.476929 107.134689,234.235901 
z"/>
<path fill="#000000" opacity="1.000000" stroke="none" 
	d="
M320.726196,234.782410 
	C317.842621,233.397354 316.675812,231.375153 316.676270,228.635956 
	C316.676941,224.333115 316.674866,220.030289 316.669678,215.727448 
	C316.667206,213.659042 317.261261,212.081482 319.731445,212.207733 
	C321.926849,212.319946 322.357574,213.850876 322.362579,215.669342 
	C322.368500,217.820755 322.434387,219.973923 322.370026,222.123199 
	C322.248718,226.173431 321.650452,230.435791 327.946045,230.049194 
	C329.184448,229.973160 329.985657,231.087585 330.000946,232.421051 
	C330.016235,233.754333 329.214783,234.658401 328.013702,234.948380 
	C325.739014,235.497528 323.421143,235.442184 320.726196,234.782410 
z"/>
<path fill="#000000" opacity="1.000000" stroke="none" 
	d="
M164.380981,219.071686 
	C164.494934,223.202515 164.666214,226.858810 164.694885,230.516235 
	C164.711746,232.666840 164.910950,235.125320 161.609039,235.060928 
	C158.741150,235.005020 158.657562,232.937927 158.657867,230.841385 
	C158.658569,226.015427 158.654694,221.189468 158.660645,216.363510 
	C158.663223,214.275696 158.737701,212.129318 161.623917,212.196991 
	C164.139160,212.255997 164.374939,214.149399 164.375778,216.101425 
	C164.376144,216.933487 164.377472,217.765564 164.380981,219.071686 
z"/>
<path fill="#000000" opacity="1.000000" stroke="none" 
	d="
M389.642212,218.159515 
	C389.656097,216.861450 389.672424,216.035004 389.685181,215.208481 
	C389.716522,213.176071 390.739868,212.143539 392.778564,212.248734 
	C394.674133,212.346558 395.286346,213.614578 395.290222,215.283951 
	C395.303223,220.905594 395.301971,226.527405 395.273376,232.148972 
	C395.264648,233.864700 394.506866,234.995132 392.628082,235.040131 
	C390.574707,235.089310 389.565186,234.043289 389.570099,232.024353 
	C389.580933,227.559891 389.617157,223.095520 389.642212,218.159515 
z"/>
</svg>